PathFileType	4	(X/Y/Z)	joints.trc
DataRate	CameraRate	NumFrames	NumMarkers	Units	OrigDataRate	OrigDataStartFrame	OrigNumFrames
30.0	30.0	22	17	m	30.0	61	120
Frame#	Time	smpl_pelvis			l_smpl_hip			r_smpl_hip			smpl_spine			l_smpl_knee			r_smpl_knee			l_smpl_ankle			r_smpl_ankle			l_smpl_mtp			r_smpl_mtp			smpl_head			l_smpl_shoulder			r_smpl_shoulder			l_smpl_elbow			r_smpl_elbow			l_smpl_hand			r_smpl_hand		
		X1	Y1	Z1	X2	Y2	Z2	X3	Y3	Z3	X4	Y4	Z4	X5	Y5	Z5	X6	Y6	Z6	X7	Y7	Z7	X8	Y8	Z8	X9	Y9	Z9	X10	Y10	Z10	X11	Y11	Z11	X12	Y12	Z12	X13	Y13	Z13	X14	Y14	Z14	X15	Y15	Z15	X16	Y16	Z16	X17	Y17	Z17
61	2.000000	0.047701	0.929679	-0.006538	0.108612	0.846233	-0.013305	-0.017632	0.841769	-0.025043	0.052957	1.060334	-0.026162	0.198546	0.465647	0.017843	-0.102764	0.465451	0.005194	0.259968	0.061678	-0.125921	-0.134072	0.065648	-0.147217	0.317936	0.020710	0.001936	-0.191700	0.018802	-0.015011	0.011221	1.551341	0.070934	0.232578	1.376516	-0.005625	-0.162836	1.367431	-0.036224	0.258805	1.159987	-0.130173	-0.137649	1.147918	-0.178838	0.324810	0.911797	-0.199922	-0.175022	0.902132	-0.291770
62	2.033333	0.051576	0.940286	-0.009327	0.112691	0.857271	-0.019103	-0.013692	0.852575	-0.028486	0.055758	1.071441	-0.026155	0.203603	0.474491	-0.014431	-0.097254	0.473230	-0.024178	0.260742	0.060216	-0.128338	-0.133811	0.066256	-0.150522	0.317994	0.020524	-0.000655	-0.189437	0.018814	-0.017287	0.017048	1.562567	0.067342	0.236438	1.387572	-0.013101	-0.159453	1.378624	-0.035681	0.266534	1.174700	-0.140021	-0.145833	1.160759	-0.179729	0.344067	0.933423	-0.216101	-0.193600	0.923727	-0.296598
63	2.066667	0.055320	0.942424	-0.014280	0.116515	0.859651	-0.025998	-0.009793	0.854642	-0.033180	0.058665	1.073809	-0.029859	0.207585	0.476608	-0.035929	-0.093362	0.474894	-0.043712	0.262296	0.056800	-0.130450	-0.133882	0.064207	-0.152482	0.319224	0.018809	-0.002489	-0.188203	0.017263	-0.018162	0.023618	1.565328	0.062593	0.240730	1.388177	-0.020983	-0.156059	1.380255	-0.033921	0.276207	1.174255	-0.144152	-0.157685	1.158097	-0.170101	0.367414	0.938030	-0.218366	-0.221845	0.924487	-0.279183
64	2.100000	0.058527	0.942494	-0.020157	0.119667	0.859847	-0.032927	-0.006390	0.854561	-0.038085	0.061207	1.073974	-0.035603	0.210816	0.476853	-0.050739	-0.090469	0.475235	-0.056884	0.263559	0.054463	-0.132328	-0.133515	0.062318	-0.153167	0.320223	0.016990	-0.004034	-0.186921	0.015889	-0.018215	0.030307	1.565866	0.055103	0.244918	1.385460	-0.030401	-0.152826	1.379197	-0.032277	0.285707	1.166188	-0.143607	-0.170434	1.147774	-0.151216	0.389747	0.931447	-0.206806	-0.252019	0.910836	-0.240136
65	2.133333	0.061123	0.942692	-0.026274	0.122117	0.860073	-0.039443	-0.003532	0.854622	-0.042856	0.063211	1.074153	-0.042183	0.213284	0.477098	-0.061570	-0.087990	0.475524	-0.066074	0.264318	0.053225	-0.134171	-0.132660	0.061124	-0.153185	0.320519	0.015508	-0.005676	-0.185184	0.014962	-0.017971	0.036482	1.566485	0.044963	0.248655	1.382296	-0.040428	-0.149865	1.378013	-0.031585	0.293629	1.155144	-0.138922	-0.181590	1.135422	-0.126689	0.407003	0.919649	-0.182853	-0.277030	0.892238	-0.183209
66	2.166667	0.063168	0.943213	-0.032295	0.123963	0.860587	-0.045495	-0.001208	0.855053	-0.047457	0.064706	1.074550	-0.048877	0.215193	0.477681	-0.070149	-0.085754	0.475834	-0.073356	0.264709	0.052399	-0.135699	-0.131733	0.060159	-0.152797	0.320338	0.014313	-0.007273	-0.183332	0.014236	-0.017661	0.041955	1.567376	0.033422	0.251797	1.379121	-0.050075	-0.147027	1.377378	-0.031506	0.299877	1.143737	-0.131471	-0.189542	1.125727	-0.100052	0.418360	0.907591	-0.150320	-0.292155	0.878932	-0.114291
67	2.200000	0.064703	0.943737	-0.037943	0.125286	0.861083	-0.050866	0.000641	0.855503	-0.051785	0.065862	1.074916	-0.055313	0.216654	0.478320	-0.077012	-0.083928	0.476056	-0.079410	0.264817	0.051794	-0.136892	-0.131116	0.059240	-0.152051	0.319829	0.013471	-0.008683	-0.181807	0.013685	-0.017194	0.046468	1.568030	0.021599	0.254384	1.375706	-0.058564	-0.144145	1.377402	-0.031667	0.304611	1.133150	-0.122209	-0.193268	1.120411	-0.072937	0.423803	0.897375	-0.112509	-0.295337	0.874516	-0.041235
68	2.233333	0.065833	0.944038	-0.043079	0.126259	0.861336	-0.055485	0.002083	0.855745	-0.055845	0.066834	1.075060	-0.061259	0.217611	0.478788	-0.082205	-0.082549	0.476195	-0.084465	0.264462	0.051382	-0.137626	-0.130767	0.058419	-0.151196	0.319012	0.013008	-0.009647	-0.180641	0.013323	-0.016669	0.050102	1.568268	0.010403	0.256376	1.372242	-0.065512	-0.141233	1.377948	-0.032044	0.307615	1.124593	-0.112755	-0.192919	1.118985	-0.046696	0.423098	0.890325	-0.075056	-0.287250	0.877465	0.028370
69	2.266667	0.066629	0.944043	-0.047580	0.126977	0.861285	-0.059372	0.003142	0.855709	-0.059525	0.067628	1.074893	-0.066555	0.218119	0.478986	-0.085993	-0.081714	0.476242	-0.088325	0.263708	0.050982	-0.137966	-0.130910	0.057678	-0.150262	0.318101	0.012753	-0.010213	-0.179981	0.013056	-0.015950	0.053148	1.568105	0.000011	0.257896	1.368809	-0.070983	-0.138345	1.378818	-0.032414	0.308917	1.117889	-0.103287	-0.189803	1.120075	-0.020951	0.416674	0.886114	-0.039876	-0.271160	0.885740	0.091915
70	2.300000	0.067170	0.943883	-0.051372	0.127487	0.861053	-0.062622	0.003899	0.855505	-0.062770	0.068252	1.074548	-0.071088	0.218220	0.478900	-0.088890	-0.081219	0.476183	-0.091053	0.262897	0.050445	-0.138364	-0.131251	0.057010	-0.149602	0.317371	0.012518	-0.010859	-0.179622	0.012729	-0.015344	0.055837	1.567702	-0.008926	0.259135	1.365797	-0.075070	-0.135706	1.379937	-0.032847	0.308802	1.112929	-0.094915	-0.185242	1.122956	0.001056	0.406473	0.884067	-0.010808	-0.251383	0.897470	0.141562
71	2.333333	0.067524	0.943680	-0.054387	0.127848	0.860762	-0.065254	0.004404	0.855257	-0.065449	0.068699	1.074175	-0.074780	0.218085	0.478601	-0.091288	-0.080884	0.476037	-0.092742	0.262232	0.049771	-0.139223	-0.131539	0.056462	-0.149312	0.316886	0.012249	-0.011985	-0.179369	0.012329	-0.015003	0.058054	1.567203	-0.016015	0.260195	1.363389	-0.077927	-0.133634	1.380987	-0.033639	0.307710	1.109366	-0.088377	-0.180423	1.126311	0.016490	0.395012	0.882894	0.010547	-0.231711	0.909480	0.174293
72	2.366667	0.067757	0.943467	-0.056702	0.128105	0.860463	-0.067270	0.004707	0.855025	-0.067561	0.069057	1.073821	-0.077743	0.217884	0.478188	-0.093113	-0.080612	0.475790	-0.093608	0.261654	0.049010	-0.140008	-0.131613	0.055956	-0.149092	0.316564	0.011930	-0.013099	-0.179085	0.011936	-0.014722	0.059806	1.566734	-0.021768	0.261239	1.361324	-0.079841	-0.132005	1.381743	-0.034997	0.306005	1.106506	-0.083266	-0.175536	1.129146	0.025754	0.383011	0.881387	0.026077	-0.212465	0.919520	0.194202
73	2.400000	0.067886	0.943305	-0.058339	0.128255	0.860228	-0.068727	0.004815	0.854871	-0.069034	0.069331	1.073553	-0.079900	0.217653	0.477794	-0.094367	-0.080443	0.475510	-0.093815	0.260990	0.048299	-0.140579	-0.131498	0.055566	-0.148906	0.316212	0.011586	-0.014046	-0.178776	0.011679	-0.014431	0.061064	1.566422	-0.026018	0.262221	1.359631	-0.081103	-0.130821	1.382116	-0.036645	0.304029	1.104214	-0.080001	-0.171249	1.130684	0.029203	0.371693	0.879048	0.035475	-0.195874	0.925041	0.202771
74	2.433333	0.067947	0.943198	-0.059421	0.128302	0.860050	-0.069696	0.004788	0.854787	-0.070009	0.069524	1.073357	-0.081386	0.217325	0.477414	-0.095224	-0.080278	0.475237	-0.093516	0.260156	0.047657	-0.141046	-0.131136	0.055277	-0.148622	0.315717	0.011211	-0.014905	-0.178294	0.011548	-0.014026	0.061903	1.566196	-0.028949	0.263156	1.358234	-0.081674	-0.130020	1.382150	-0.038462	0.302131	1.102374	-0.078058	-0.167880	1.130863	0.028097	0.361227	0.876086	0.040525	-0.182498	0.925627	0.202319
75	2.466667	0.067930	0.943189	-0.060023	0.128255	0.859979	-0.070233	0.004660	0.854810	-0.070596	0.069626	1.073279	-0.082257	0.216836	0.477091	-0.095812	-0.080095	0.475052	-0.092948	0.259114	0.047187	-0.141376	-0.130528	0.055072	-0.148209	0.314966	0.010851	-0.015607	-0.177547	0.011522	-0.013480	0.062363	1.566057	-0.030654	0.263946	1.357136	-0.081678	-0.129601	1.381919	-0.040285	0.300397	1.100922	-0.077343	-0.165611	1.129857	0.023262	0.352114	0.872813	0.041879	-0.173163	0.921557	0.194014
76	2.500000	0.067837	0.943227	-0.060215	0.128117	0.859961	-0.070408	0.004474	0.854877	-0.070820	0.069660	1.073272	-0.082626	0.216161	0.476784	-0.096242	-0.079936	0.474922	-0.092081	0.257883	0.046868	-0.141639	-0.129796	0.054884	-0.147457	0.314081	0.010522	-0.016222	-0.176606	0.011500	-0.012545	0.062330	1.565958	-0.031386	0.264506	1.356333	-0.081057	-0.129568	1.381445	-0.041955	0.299052	1.099878	-0.077152	-0.164426	1.128252	0.016524	0.344648	0.869772	0.041362	-0.167600	0.914727	0.180812
77	2.533333	0.067671	0.943239	-0.060063	0.127908	0.859928	-0.070289	0.004242	0.854918	-0.070703	0.069595	1.073255	-0.082566	0.215469	0.476531	-0.096522	-0.079917	0.474832	-0.091063	0.256721	0.046677	-0.141961	-0.129288	0.054742	-0.146565	0.313328	0.010283	-0.016807	-0.175876	0.011434	-0.011457	0.061884	1.565885	-0.031450	0.264772	1.355781	-0.080208	-0.129840	1.380774	-0.043352	0.298232	1.099249	-0.077435	-0.164278	1.126467	0.009521	0.339452	0.867366	0.039746	-0.165643	0.907309	0.166342
78	2.566667	0.067436	0.943198	-0.059641	0.127645	0.859847	-0.069872	0.003949	0.854923	-0.070305	0.069447	1.073188	-0.082225	0.214746	0.476285	-0.096607	-0.079985	0.474730	-0.089994	0.255519	0.046510	-0.142383	-0.128876	0.054600	-0.145748	0.312576	0.010069	-0.017394	-0.175248	0.011311	-0.010450	0.061202	1.565831	-0.031196	0.264810	1.355405	-0.079224	-0.130346	1.379872	-0.044766	0.297681	1.098945	-0.077853	-0.164700	1.124480	0.002206	0.335737	0.865470	0.037731	-0.165951	0.900055	0.151449
79	2.600000	0.067140	0.943145	-0.059039	0.127336	0.859758	-0.069231	0.003627	0.854923	-0.069742	0.069218	1.073113	-0.081678	0.214051	0.476085	-0.096399	-0.080072	0.474648	-0.089025	0.254480	0.046406	-0.142601	-0.128547	0.054456	-0.145067	0.311862	0.009888	-0.017680	-0.174723	0.011162	-0.009623	0.060378	1.565884	-0.030685	0.264680	1.355180	-0.078142	-0.130972	1.378972	-0.046134	0.297305	1.098864	-0.078236	-0.165534	1.122601	-0.004913	0.333380	0.863989	0.035588	-0.167913	0.893634	0.137270
80	2.633333	0.066784	0.943064	-0.058294	0.126958	0.859640	-0.068430	0.003256	0.854902	-0.069090	0.068931	1.073020	-0.080943	0.213403	0.475903	-0.096002	-0.080208	0.474572	-0.088110	0.253637	0.046382	-0.142857	-0.128281	0.054307	-0.144482	0.311240	0.009749	-0.017931	-0.174330	0.011029	-0.008962	0.059425	1.566008	-0.029885	0.264391	1.355058	-0.076836	-0.131673	1.378114	-0.047358	0.297027	1.098913	-0.078323	-0.166664	1.120935	-0.011573	0.331875	0.862856	0.033840	-0.170819	0.888324	0.124588
81	2.666667	0.066351	0.942932	-0.057456	0.126510	0.859484	-0.067524	0.002811	0.854823	-0.068390	0.068580	1.072875	-0.080074	0.212756	0.475702	-0.095410	-0.080380	0.474453	-0.087163	0.252864	0.046400	-0.143049	-0.127875	0.054095	-0.143862	0.310644	0.009658	-0.018106	-0.173868	0.010897	-0.008344	0.058335	1.566088	-0.028800	0.263900	1.355016	-0.075295	-0.132433	1.377329	-0.048274	0.296843	1.099058	-0.077990	-0.168050	1.119519	-0.017327	0.330979	0.862049	0.032700	-0.174032	0.884161	0.113962
82	2.700000	0.065824	0.942810	-0.056547	0.125962	0.859352	-0.066564	0.002307	0.854740	-0.067656	0.068130	1.072739	-0.079061	0.212098	0.475522	-0.094584	-0.080666	0.474335	-0.086073	0.252136	0.046463	-0.143185	-0.127427	0.053891	-0.143055	0.310121	0.009692	-0.018261	-0.173457	0.010845	-0.007574	0.057095	1.566155	-0.027464	0.263222	1.355086	-0.073480	-0.133301	1.376693	-0.048736	0.296783	1.099281	-0.077161	-0.169625	1.118434	-0.021800	0.330490	0.861554	0.032209	-0.177135	0.881191	0.105959
